<svg width="20" height="25" viewBox="0 0 20 25" fill="none" xmlns="http://www.w3.org/2000/svg">
<path d="M9.36793 9.45865C8.90401 9.57525 8.61499 10.0751 8.72291 10.575C9.6123 14.7032 9.8058 19.0285 9.28358 23.086C9.21784 23.5945 9.54655 24.0659 10.0179 24.1354C10.0578 24.1412 10.098 24.1441 10.1382 24.144C10.5612 24.144 10.9309 23.8079 10.9916 23.3427C11.5424 19.0608 11.339 14.501 10.4024 10.1545C10.2945 9.65216 9.83185 9.34329 9.36793 9.45865ZM7.36961 14.697C6.89577 14.7441 6.54721 15.1981 6.59062 15.7092C6.80149 18.1503 6.74567 20.5592 6.42689 22.8689C6.35742 23.3775 6.68241 23.8501 7.15253 23.9257C7.19477 23.9326 7.23751 23.9359 7.2803 23.9356C7.7008 23.9356 8.06921 23.6045 8.13247 23.1418C8.47111 20.6857 8.5294 18.1267 8.30737 15.538C8.26395 15.0257 7.82857 14.6449 7.36961 14.697ZM8.72167 6.43698C7.74918 6.68134 6.92306 7.32016 6.39463 8.23435C5.86498 9.15531 5.69738 10.2405 5.92451 11.2784C6.03367 11.7869 6.1329 12.2955 6.21849 12.8028C6.30284 13.3089 6.76428 13.6426 7.222 13.5508C7.69088 13.4578 7.99974 12.9728 7.91416 12.4679C7.82255 11.9286 7.71916 11.3914 7.60405 10.8566C7.48229 10.2982 7.57295 9.71444 7.85834 9.21925C8.14363 8.72556 8.58895 8.38072 9.11116 8.25048C10.1928 7.97759 11.2707 8.70944 11.5213 9.8742C12.4467 14.1673 12.6898 18.4703 12.2408 22.6617C12.1874 23.1715 12.5261 23.633 12.9999 23.6913C13.0328 23.6958 13.0659 23.6983 13.0991 23.6987C13.532 23.6987 13.9042 23.3489 13.955 22.8751C14.4251 18.4703 14.1709 13.954 13.2008 9.45369C12.7357 7.29163 10.7312 5.93833 8.72043 6.43698H8.72167ZM5.73101 7.09813C5.87374 6.90146 5.9383 6.65877 5.91217 6.41718C5.88604 6.17559 5.77108 5.95232 5.5896 5.79072C5.5026 5.71536 5.4007 5.65915 5.29055 5.62577C5.18039 5.59239 5.06444 5.58258 4.95024 5.59697C4.83604 5.61136 4.72615 5.64964 4.62772 5.70931C4.52929 5.76897 4.44453 5.8487 4.37894 5.94329C4.22668 6.15214 4.08589 6.36912 3.9572 6.59327C3.01995 8.22318 2.72365 10.1438 3.12612 11.9804C3.86293 15.4003 4.03535 18.9119 3.62353 22.1395C3.55902 22.6481 3.88898 23.117 4.36034 23.1877C4.39982 23.1928 4.4396 23.1953 4.47942 23.1951C4.90364 23.1951 5.27329 22.8577 5.33283 22.3926C5.7707 18.9442 5.5896 15.1981 4.80565 11.5599C4.63818 10.7929 4.63403 9.99926 4.79346 9.23054C4.95289 8.46183 5.27233 7.73527 5.73101 7.09813ZM16.1034 15.6223C15.6284 15.6471 15.2599 16.0838 15.2848 16.5973C15.3633 18.3053 15.3388 20.0164 15.2116 21.7215C15.1719 22.235 15.5254 22.6828 16.0005 22.7262C16.024 22.728 16.0476 22.7288 16.0712 22.7287C16.5165 22.7287 16.8936 22.3603 16.9296 21.8728C17.0623 20.1089 17.0883 18.3029 17.0065 16.5055C16.9829 15.992 16.5674 15.6087 16.1034 15.6223ZM15.8926 14.3385C15.9287 14.3384 15.9647 14.3359 16.0005 14.331C16.4731 14.269 16.8068 13.8039 16.7497 13.294C16.5735 11.7681 16.3226 10.2517 15.998 8.75037C15.3133 5.55752 12.5868 3.23916 9.51926 3.23916C9.03426 3.23916 8.54925 3.29746 8.07541 3.41531C7.68343 3.51454 7.30014 3.65099 6.93298 3.82092C6.49635 4.02559 6.2954 4.57386 6.48394 5.04522C6.67373 5.51658 7.1823 5.73366 7.61769 5.52899C7.88935 5.40247 8.17588 5.30075 8.46366 5.22881C8.8085 5.14198 9.16326 5.0998 9.51802 5.0998C11.7942 5.0998 13.8124 6.81159 14.3185 9.17212C14.6286 10.6085 14.8717 12.0722 15.0379 13.5235C15.0925 13.9949 15.4646 14.3385 15.8938 14.3385H15.8926ZM18.7976 8.05201C18.4121 6.2389 17.5468 4.56259 16.292 3.19823C16.2152 3.11255 16.1212 3.04402 16.0162 2.99711C15.9111 2.95019 15.7974 2.92594 15.6823 2.92594C15.5673 2.92594 15.4535 2.95019 15.3485 2.99711C15.2434 3.04402 15.1494 3.11255 15.0726 3.19823C14.9095 3.37989 14.819 3.61533 14.8185 3.85952C14.8181 4.10371 14.9077 4.3395 15.0702 4.52176C16.0956 5.6417 16.8027 7.01565 17.1181 8.50105C17.9179 12.2076 18.2764 15.9957 18.1861 19.7864C18.1737 20.3 18.5483 20.8085 19.0246 20.8085H19.0482C19.5134 20.8085 19.8967 20.3434 19.9103 19.8385C20.0044 15.8796 19.6309 11.9234 18.7976 8.05201ZM1.56566 15.667C1.60803 15.6669 1.65033 15.6636 1.69218 15.6571C2.16355 15.5826 2.48854 15.1088 2.42031 14.6015C2.31297 13.8163 2.17559 13.0355 2.00849 12.2608C1.53471 10.1052 1.88191 7.85033 2.98223 5.93709C4.07752 4.03924 5.79427 2.71447 7.81244 2.20837C9.57176 1.78179 11.427 2.02869 13.0135 2.90053C13.4378 3.13249 13.9563 2.94642 14.1709 2.48747C14.3855 2.02851 14.2143 1.46908 13.7888 1.23836C11.8473 0.172892 9.57749 -0.127977 7.42543 0.394871C4.95698 1.01508 2.85818 2.63384 1.51853 4.95219C0.173753 7.29111 -0.250826 10.0473 0.327718 12.6825C0.486492 13.4193 0.616737 14.1549 0.71349 14.8719C0.775511 15.3345 1.14516 15.667 1.56566 15.667ZM1.82243 17.0873H1.7939C1.31758 17.0873 0.945449 17.3974 0.960334 17.9097C0.993826 18.9615 0.965296 19.8695 0.873504 20.8743C0.827609 21.3853 1.17369 21.8393 1.64753 21.889C1.67597 21.8917 1.70454 21.893 1.73312 21.8927C1.94836 21.8993 2.15778 21.8222 2.31739 21.6776C2.47699 21.5331 2.57435 21.3323 2.58901 21.1174C2.68825 20.032 2.7205 18.9802 2.68452 17.8464C2.66964 17.344 2.28511 17.0873 1.82243 17.0873Z" fill="#2B2B2B"/>
</svg>
