<svg width="25" height="25" viewBox="0 0 25 25" fill="none" xmlns="http://www.w3.org/2000/svg">
<path d="M20.3454 3.5415H4.34541C4.13324 3.5415 3.92975 3.62579 3.77972 3.77582C3.6297 3.92585 3.54541 4.12933 3.54541 4.3415V21.2535C3.54541 22.0725 3.87075 22.8579 4.44986 23.437C5.02898 24.0162 5.81442 24.3415 6.63341 24.3415H18.0574C18.8764 24.3415 19.6618 24.0162 20.241 23.437C20.8201 22.8579 21.1454 22.0725 21.1454 21.2535V4.3415C21.1454 4.12933 21.0611 3.92585 20.9111 3.77582C20.7611 3.62579 20.5576 3.5415 20.3454 3.5415ZM12.3454 17.1415C11.3961 17.1415 10.468 16.86 9.67867 16.3326C8.88932 15.8051 8.27409 15.0555 7.91079 14.1784C7.54749 13.3013 7.45243 12.3362 7.63764 11.4051C7.82285 10.474 8.28001 9.61868 8.9513 8.94739C9.62259 8.2761 10.4779 7.81894 11.409 7.63373C12.3401 7.44853 13.3052 7.54358 14.1823 7.90688C15.0594 8.27018 15.809 8.88541 16.3365 9.67477C16.8639 10.4641 17.1454 11.3922 17.1454 12.3415C17.1454 13.6145 16.6397 14.8354 15.7395 15.7356C14.8393 16.6358 13.6184 17.1415 12.3454 17.1415Z" fill="#FFC700"/>
<path d="M21.9455 0.341553H2.74546C2.10894 0.341553 1.49849 0.594409 1.0484 1.0445C0.598315 1.49458 0.345459 2.10503 0.345459 2.74155V7.54155C0.346851 8.03671 0.501362 8.51931 0.78781 8.9232C1.07426 9.3271 1.47862 9.6325 1.94546 9.79755V4.34155C1.94546 3.70503 2.19832 3.09458 2.6484 2.6445C3.09849 2.19441 3.70894 1.94155 4.34546 1.94155H20.3455C20.982 1.94155 21.5924 2.19441 22.0425 2.6445C22.4926 3.09458 22.7455 3.70503 22.7455 4.34155V9.79755C23.2123 9.6325 23.6167 9.3271 23.9031 8.9232C24.1896 8.51931 24.3441 8.03671 24.3455 7.54155V2.74155C24.3455 2.10503 24.0926 1.49458 23.6425 1.0445C23.1924 0.594409 22.582 0.341553 21.9455 0.341553Z" fill="#FFC700"/>
</svg>
