<svg width="27" height="27" viewBox="0 0 27 27" fill="none" xmlns="http://www.w3.org/2000/svg">
<path d="M11.2655 20.0469V22.8566C11.2655 24.1821 12.34 25.2566 13.6655 25.2566C14.991 25.2566 16.0655 24.1821 16.0655 22.8566V20.0469M13.6655 1.25659V2.45659M2.86553 13.2566H1.66553M5.86553 5.45659L5.14541 4.73647M21.4655 5.45659L22.1858 4.73647M25.6655 13.2566H24.4655M20.8655 13.2566C20.8655 17.233 17.642 20.4566 13.6655 20.4566C9.68908 20.4566 6.46553 17.233 6.46553 13.2566C6.46553 9.28014 9.68908 6.05659 13.6655 6.05659C17.642 6.05659 20.8655 9.28014 20.8655 13.2566Z" stroke="#F1416C" stroke-width="2" stroke-linecap="round" stroke-linejoin="round"/>
</svg>
