<svg width="23" height="28" viewBox="0 0 23 28" fill="none" xmlns="http://www.w3.org/2000/svg">
<path d="M5.34546 17.292V21.292M17.3455 15.292V19.292M16.3455 10.292C18.7942 10.292 20.1186 10.6668 20.7776 10.9574C20.8653 10.9961 20.9092 11.0155 21.0359 11.1364C21.1118 11.2088 21.2503 11.4214 21.286 11.5201C21.3455 11.6847 21.3455 11.7747 21.3455 11.9547V22.7031C21.3455 23.6119 21.3455 24.0663 21.2092 24.2998C21.0706 24.5374 20.9369 24.6479 20.6774 24.7392C20.4223 24.8289 19.9074 24.73 18.8776 24.5321C18.1568 24.3936 17.302 24.292 16.3455 24.292C13.3455 24.292 10.3455 26.292 6.34546 26.292C3.89675 26.292 2.57233 25.9172 1.91334 25.6265C1.82558 25.5878 1.7817 25.5685 1.65506 25.4476C1.57915 25.3752 1.44058 25.1626 1.40493 25.0639C1.34546 24.8993 1.34546 24.8093 1.34546 24.6292L1.34546 13.8808C1.34546 12.9721 1.34546 12.5177 1.48174 12.2841C1.62036 12.0466 1.75405 11.9361 2.01352 11.8448C2.2686 11.755 2.78349 11.854 3.81329 12.0518C4.53408 12.1903 5.38894 12.292 6.34546 12.292C9.34546 12.292 12.3455 10.292 16.3455 10.292ZM13.8455 18.292C13.8455 19.6727 12.7262 20.792 11.3455 20.792C9.96475 20.792 8.84546 19.6727 8.84546 18.292C8.84546 16.9113 9.96475 15.792 11.3455 15.792C12.7262 15.792 13.8455 16.9113 13.8455 18.292Z" stroke="#06BC56" stroke-width="2" stroke-linecap="round" stroke-linejoin="round"/>
<path d="M5.22388 9.13501V1.37817M5.22388 1.37817L1.34546 5.25659M5.22388 1.37817L9.10229 5.25659" stroke="#06BC56" stroke-width="2" stroke-linecap="round" stroke-linejoin="round"/>
</svg>
