<svg width="17" height="25" viewBox="0 0 17 25" fill="none" xmlns="http://www.w3.org/2000/svg">
<path d="M14.7455 0.797607H2.26546C1.75624 0.797607 1.26788 0.999892 0.907814 1.35996C0.547744 1.72003 0.345459 2.20839 0.345459 2.71761V22.8776C0.345459 23.3868 0.547744 23.8752 0.907814 24.2353C1.26788 24.5953 1.75624 24.7976 2.26546 24.7976H14.7455C15.2547 24.7976 15.743 24.5953 16.1031 24.2353C16.4632 23.8752 16.6655 23.3868 16.6655 22.8776V2.71761C16.6655 2.20839 16.4632 1.72003 16.1031 1.35996C15.743 0.999892 15.2547 0.797607 14.7455 0.797607ZM3.70546 15.1976C3.89463 15.1977 4.08193 15.235 4.25667 15.3074C4.43141 15.3799 4.59018 15.486 4.72389 15.6199C4.85761 15.7537 4.96366 15.9125 5.03599 16.0873C5.10833 16.2621 5.14552 16.4494 5.14546 16.6386C5.1454 16.8277 5.10807 17.015 5.03563 17.1898C4.96318 17.3645 4.85702 17.5233 4.72321 17.657C4.58941 17.7907 4.43058 17.8968 4.25578 17.9691C4.08099 18.0414 3.89367 18.0786 3.7045 18.0786C3.32246 18.0784 2.95612 17.9266 2.68607 17.6563C2.41601 17.3861 2.26437 17.0196 2.2645 16.6376C2.26463 16.2556 2.41651 15.8892 2.68675 15.6192C2.95698 15.3491 3.32342 15.1975 3.70546 15.1976ZM2.26546 11.8376C2.26559 11.4556 2.41747 11.0892 2.68771 10.8192C2.95794 10.5491 3.32438 10.3975 3.70642 10.3976C4.08846 10.3977 4.4548 10.5496 4.72485 10.8199C4.9949 11.0901 5.14655 11.4565 5.14642 11.8386C5.14629 12.2206 4.99441 12.5869 4.72417 12.857C4.45394 13.1271 4.0875 13.2787 3.70546 13.2786C3.32342 13.2784 2.95708 13.1266 2.68703 12.8563C2.41697 12.5861 2.26533 12.2196 2.26546 11.8376ZM8.50546 22.8776H3.70546C3.32355 22.8776 2.95728 22.7259 2.68723 22.4558C2.41717 22.1858 2.26546 21.8195 2.26546 21.4376C2.26546 21.0557 2.41717 20.6894 2.68723 20.4194C2.95728 20.1493 3.32355 19.9976 3.70546 19.9976H8.50546C8.88737 19.9976 9.25364 20.1493 9.52369 20.4194C9.79375 20.6894 9.94546 21.0557 9.94546 21.4376C9.94546 21.8195 9.79375 22.1858 9.52369 22.4558C9.25364 22.7259 8.88737 22.8776 8.50546 22.8776ZM8.50546 18.0776C8.31629 18.0775 8.12899 18.0402 7.95425 17.9678C7.77951 17.8953 7.62074 17.7892 7.48703 17.6554C7.35331 17.5216 7.24726 17.3627 7.17493 17.1879C7.10259 17.0131 7.0654 16.8258 7.06546 16.6366C7.06552 16.4475 7.10284 16.2602 7.17529 16.0854C7.24774 15.9107 7.3539 15.7519 7.48771 15.6182C7.62151 15.4845 7.78034 15.3784 7.95514 15.3061C8.12993 15.2338 8.31725 15.1966 8.50642 15.1966C8.88846 15.1968 9.2548 15.3487 9.52485 15.6189C9.79491 15.8891 9.94655 16.2556 9.94642 16.6376C9.94629 17.0196 9.79441 17.386 9.52417 17.656C9.25394 17.9261 8.8875 18.0777 8.50546 18.0776ZM8.50546 13.2776C8.12342 13.2775 7.75708 13.1256 7.48703 12.8554C7.21697 12.5851 7.06533 12.2187 7.06546 11.8366C7.06559 11.4546 7.21747 11.0883 7.48771 10.8182C7.75794 10.5482 8.12438 10.3965 8.50642 10.3966C8.88846 10.3968 9.2548 10.5487 9.52485 10.8189C9.79491 11.0891 9.94655 11.4556 9.94642 11.8376C9.94629 12.2196 9.79441 12.586 9.52417 12.856C9.25394 13.1261 8.8875 13.2777 8.50546 13.2776ZM13.3055 22.8776C12.9234 22.8775 12.5571 22.7256 12.287 22.4554C12.017 22.1851 11.8653 21.8187 11.8655 21.4366C11.8656 21.0546 12.0175 20.6883 12.2877 20.4182C12.5579 20.1482 12.9244 19.9965 13.3064 19.9966C13.4956 19.9967 13.6829 20.034 13.8576 20.1065C14.0324 20.1789 14.1911 20.2851 14.3249 20.4189C14.4586 20.5527 14.5646 20.7115 14.637 20.8863C14.7093 21.0611 14.7465 21.2484 14.7464 21.4376C14.7464 21.6268 14.709 21.8141 14.6366 21.9888C14.5641 22.1636 14.458 22.3223 14.3242 22.456C14.1904 22.5898 14.0315 22.6958 13.8567 22.7681C13.682 22.8405 13.4946 22.8777 13.3055 22.8776ZM13.3055 18.0776C13.1163 18.0775 12.929 18.0402 12.7542 17.9678C12.5795 17.8953 12.4207 17.7892 12.287 17.6554C12.1533 17.5216 12.0473 17.3627 11.9749 17.1879C11.9026 17.0131 11.8654 16.8258 11.8655 16.6366C11.8655 16.4475 11.9028 16.2602 11.9753 16.0854C12.0477 15.9107 12.1539 15.7519 12.2877 15.6182C12.4215 15.4845 12.5803 15.3784 12.7551 15.3061C12.9299 15.2338 13.1173 15.1966 13.3064 15.1966C13.6885 15.1968 14.0548 15.3487 14.3249 15.6189C14.5949 15.8891 14.7465 16.2556 14.7464 16.6376C14.7463 17.0196 14.5944 17.386 14.3242 17.656C14.0539 17.9261 13.6875 18.0777 13.3055 18.0776ZM13.3055 13.2776C12.9234 13.2775 12.5571 13.1256 12.287 12.8554C12.017 12.5851 11.8653 12.2187 11.8655 11.8366C11.8656 11.4546 12.0175 11.0883 12.2877 10.8182C12.5579 10.5482 12.9244 10.3965 13.3064 10.3966C13.6885 10.3968 14.0548 10.5487 14.3249 10.8189C14.5949 11.0891 14.7465 11.4556 14.7464 11.8376C14.7463 12.2196 14.5944 12.586 14.3242 12.856C14.0539 13.1261 13.6875 13.2777 13.3055 13.2776ZM14.7455 6.55761C14.7455 7.06682 14.5432 7.55518 14.1831 7.91525C13.823 8.27532 13.3347 8.47761 12.8255 8.47761H4.18546C3.67624 8.47761 3.18788 8.27532 2.82781 7.91525C2.46774 7.55518 2.26546 7.06682 2.26546 6.55761V4.63761C2.26546 4.12839 2.46774 3.64003 2.82781 3.27996C3.18788 2.91989 3.67624 2.71761 4.18546 2.71761H12.8255C13.3347 2.71761 13.823 2.91989 14.1831 3.27996C14.5432 3.64003 14.7455 4.12839 14.7455 4.63761V6.55761Z" fill="#0E19AA"/>
</svg>
