<svg width="25" height="26" viewBox="0 0 25 26" fill="none" xmlns="http://www.w3.org/2000/svg">
<path d="M11.4726 2.84155H1.66553V24.7976H16.7422V16.4542" stroke="#24A3FF" stroke-width="2" stroke-linejoin="round"/>
<rect x="6.30933" y="19.9751" width="5.58546" height="1.52314" fill="#24A3FF"/>
<path d="M13.4054 10.5012C13.2962 11.4234 14.0583 12.2149 14.984 12.1406V12.1406C15.8428 12.0716 16.4699 11.2521 15.9892 10.5371C15.8644 10.3515 15.7213 10.1735 15.5601 10.0061C15.3989 9.83866 15.2265 9.68898 15.0456 9.55722C14.3493 9.04984 13.5067 9.64561 13.4054 10.5012V10.5012Z" fill="#24A3FF"/>
<path d="M17.9235 7.72745C16.8036 6.5644 15.4198 5.82974 13.9906 5.53725L13.7909 7.2239C14.8587 7.44098 15.8985 7.9921 16.7405 8.86655C17.5826 9.74099 18.094 10.8009 18.2706 11.8761L19.9636 11.7402C19.7253 10.301 19.0434 8.89051 17.9235 7.72745Z" fill="#24A3FF"/>
<path d="M20.2905 5.44982C18.6106 3.70524 16.5309 2.60299 14.3912 2.16452L14.1915 3.85116C15.9698 4.21423 17.7056 5.13294 19.1076 6.58892C20.5095 8.04489 21.362 9.81412 21.6577 11.6049L23.3507 11.4689C22.9933 9.31424 21.9704 7.1944 20.2905 5.44982Z" fill="#24A3FF"/>
</svg>
