<svg width="24" height="25" viewBox="0 0 24 25" fill="none" xmlns="http://www.w3.org/2000/svg">
<path d="M5.14587 0.144043C3.76794 0.144043 2.51719 0.969563 1.9744 2.23608L0.0812045 6.65075C0.0223535 6.78509 0.0126953 6.88892 0.0126953 7.00165V8.18635C0.0126953 9.39349 0.725651 10.4363 1.74548 10.9401V21.0193C1.74548 22.7108 3.13358 24.0989 4.82505 24.0989H14.5567C15.0292 24.0989 15.4122 23.7158 15.4122 23.2433C15.4122 22.7708 15.0292 22.3878 14.5567 22.3878H4.82505C4.05191 22.3878 3.45654 21.7924 3.45654 21.0193V11.2275C4.18179 11.1384 4.83438 10.8068 5.31631 10.3001C5.87909 10.8913 6.66836 11.2659 7.54202 11.2659C8.41564 11.2659 9.20372 10.8913 9.76607 10.3001C10.3284 10.8913 11.1165 11.2659 11.9901 11.2659C12.8637 11.2659 13.6518 10.8913 14.2142 10.3001C14.7765 10.8913 15.5646 11.2659 16.4382 11.2659C17.3119 11.2659 18.1011 10.8913 18.6639 10.3001C19.2263 10.8913 20.0143 11.2659 20.8879 11.2659C22.5793 11.2659 23.9675 9.87767 23.9675 8.18635V7.17041C24.0057 6.99567 23.9882 6.81334 23.9174 6.64907L22.0092 2.23107C21.463 0.966363 20.212 0.144043 18.8343 0.144043H5.14587ZM1.72375 7.84381H4.46078V8.18635C4.46078 8.95965 3.86556 9.55487 3.09227 9.55487C2.31897 9.55487 1.72375 8.95965 1.72375 8.18635V7.84381ZM6.17184 7.84381H8.91054V8.18635C8.91054 8.95965 8.31532 9.55487 7.54202 9.55487C6.76873 9.55487 6.17184 8.95887 6.17184 8.18635V7.84381ZM10.6216 7.84381H13.3586V8.18635C13.3586 8.95965 12.7634 9.55487 11.9901 9.55487C11.2168 9.55487 10.6216 8.95965 10.6216 8.18635V7.84381ZM15.0697 7.84381H17.8084V8.18635C17.8084 8.95887 17.2115 9.55487 16.4382 9.55487C15.6649 9.55487 15.0697 8.95965 15.0697 8.18635V7.84381ZM19.5194 7.84381H22.2565V8.18635C22.2565 8.95965 21.6612 9.55487 20.8879 9.55487C20.1147 9.55487 19.5194 8.95965 19.5194 8.18635V7.84381Z" fill="#181C32"/>
<path d="M19.3558 12.561C16.8086 12.561 14.7423 14.6824 14.7423 17.2548C14.7423 21.3294 18.8712 23.9937 18.8712 23.9937C19.0138 24.0917 19.1828 24.1442 19.3558 24.1442C19.5288 24.1442 19.6978 24.0917 19.8404 23.9937C19.8404 23.9937 23.9676 21.3294 23.9676 17.2548C23.9676 14.6824 21.903 12.561 19.3558 12.561ZM19.3207 16.0099C19.3324 16.0097 19.3441 16.0097 19.3558 16.0099C19.5158 16.0099 19.6742 16.0421 19.822 16.1047C19.9698 16.1672 20.1041 16.2589 20.2172 16.3745C20.3303 16.4901 20.4201 16.6274 20.4813 16.7784C20.5425 16.9294 20.574 17.0913 20.5739 17.2548C20.574 17.4182 20.5425 17.5801 20.4813 17.7311C20.4201 17.8821 20.3303 18.0194 20.2172 18.135C20.1041 18.2506 19.9698 18.3423 19.822 18.4048C19.6742 18.4674 19.5158 18.4996 19.3558 18.4996C19.1958 18.4996 19.0374 18.4674 18.8896 18.4048C18.7418 18.3423 18.6075 18.2506 18.4944 18.135C18.3813 18.0194 18.2915 17.8821 18.2303 17.7311C18.1691 17.5801 18.1377 17.4182 18.1377 17.2548C18.1375 16.9307 18.261 16.6194 18.4819 16.387C18.7028 16.1545 19.0037 16.0192 19.3207 16.0099ZM6.00153 13.8326C5.77463 13.8327 5.55704 13.9228 5.3966 14.0832C5.23616 14.2437 5.14602 14.4613 5.146 14.6882V18.9658C5.14602 19.1927 5.23616 19.4103 5.3966 19.5707C5.55704 19.7312 5.77463 19.8213 6.00153 19.8213H11.0913C11.3182 19.8213 11.5357 19.7312 11.6962 19.5707C11.8566 19.4103 11.9468 19.1927 11.9468 18.9658V14.6882C11.9468 14.4613 11.8566 14.2437 11.6962 14.0832C11.5357 13.9228 11.3182 13.8327 11.0913 13.8326H6.00153Z" fill="#181C32"/>
</svg>
