<svg width="25" height="25" viewBox="0 0 25 25" fill="none" xmlns="http://www.w3.org/2000/svg">
<path d="M20.3972 3.47314H4.39717C4.18499 3.47314 3.98151 3.55743 3.83148 3.70746C3.68145 3.85749 3.59717 4.06097 3.59717 4.27314V21.1851C3.59717 22.0041 3.92251 22.7896 4.50162 23.3687C5.08073 23.9478 5.86618 24.2731 6.68517 24.2731H18.1092C18.9282 24.2731 19.7136 23.9478 20.2927 23.3687C20.8718 22.7896 21.1972 22.0041 21.1972 21.1851V4.27314C21.1972 4.06097 21.1129 3.85749 20.9629 3.70746C20.8128 3.55743 20.6093 3.47314 20.3972 3.47314ZM12.3972 17.0731C11.4478 17.0731 10.5198 16.7916 9.73043 16.2642C8.94107 15.7368 8.32585 14.9871 7.96255 14.11C7.59925 13.2329 7.50419 12.2678 7.6894 11.3367C7.87461 10.4056 8.33176 9.55032 9.00306 8.87903C9.67435 8.20774 10.5296 7.75058 11.4607 7.56538C12.3918 7.38017 13.357 7.47522 14.234 7.83852C15.1111 8.20182 15.8608 8.81705 16.3882 9.60641C16.9157 10.3958 17.1972 11.3238 17.1972 12.2731C17.1972 13.5462 16.6915 14.7671 15.7913 15.6673C14.8911 16.5674 13.6702 17.0731 12.3972 17.0731Z" fill="white"/>
<path d="M21.997 0.272949H2.79697C2.16045 0.272949 1.55 0.525806 1.09992 0.975893C0.649829 1.42598 0.396973 2.03643 0.396973 2.67295V7.47295C0.398364 7.9681 0.552875 8.45071 0.839323 8.8546C1.12577 9.25849 1.53013 9.5639 1.99697 9.72895V4.27295C1.99697 3.63643 2.24983 3.02598 2.69992 2.57589C3.15 2.12581 3.76045 1.87295 4.39697 1.87295H20.397C21.0335 1.87295 21.6439 2.12581 22.094 2.57589C22.5441 3.02598 22.797 3.63643 22.797 4.27295V9.72895C23.2638 9.5639 23.6682 9.25849 23.9546 8.8546C24.2411 8.45071 24.3956 7.9681 24.397 7.47295V2.67295C24.397 2.03643 24.1441 1.42598 23.694 0.975893C23.2439 0.525806 22.6335 0.272949 21.997 0.272949Z" fill="white"/>
</svg>
