<svg width="25" height="25" viewBox="0 0 25 25" fill="none" xmlns="http://www.w3.org/2000/svg">
<path fill-rule="evenodd" clip-rule="evenodd" d="M12.5 24.6729C19.1276 24.6729 24.5 19.3005 24.5 12.6729C24.5 6.04525 19.1276 0.672852 12.5 0.672852C5.8724 0.672852 0.5 6.04525 0.5 12.6729C0.5 19.3005 5.8724 24.6729 12.5 24.6729ZM11.1968 14.2041C11.096 14.8761 11.6672 15.4305 12.3464 15.4305H12.9104C13.0706 15.4305 13.2249 15.3694 13.3417 15.2597C13.4585 15.1501 13.5291 15 13.5392 14.8401C13.6076 14.2089 13.8788 13.6569 14.3504 13.1853L15.1064 12.4413C15.6968 11.8473 16.1096 11.3085 16.346 10.8249C16.5824 10.3341 16.7 9.81445 16.7 9.26605C16.7 8.06005 16.3364 7.12765 15.6092 6.47005C14.882 5.80525 13.8596 5.47285 12.542 5.47285C11.2364 5.47285 10.2056 5.82085 9.446 6.51805C8.99638 6.93511 8.66762 7.46576 8.4944 8.05405C8.2736 8.77885 8.9264 9.41125 9.6824 9.41125C10.3232 9.41125 10.802 8.88925 11.2472 8.40325C11.3096 8.33485 11.3708 8.26645 11.432 8.20165C11.7128 7.90525 12.0824 7.75765 12.542 7.75765C13.5116 7.75765 13.9964 8.30245 13.9964 9.39205C13.9964 9.75325 13.9028 10.0989 13.7168 10.4277C13.5308 10.7505 13.154 11.1729 12.5888 11.6949C12.0296 12.2109 11.6444 12.7377 11.432 13.2729C11.3276 13.5381 11.2496 13.8489 11.1968 14.2041ZM11.2652 17.3373C10.9856 17.6145 10.8452 17.9697 10.8452 18.4017C10.8452 18.8277 10.982 19.1793 11.2556 19.4577C11.5352 19.7337 11.9024 19.8729 12.356 19.8729C12.8096 19.8729 13.172 19.7337 13.4468 19.4565C13.7264 19.1793 13.8668 18.8277 13.8668 18.4017C13.8668 17.9697 13.7228 17.6145 13.4372 17.3373C13.1576 17.0529 12.7964 16.9113 12.356 16.9113C11.9144 16.9113 11.552 17.0529 11.2652 17.3373Z" fill="white"/>
</svg>
