<svg width="21" height="25" viewBox="0 0 21 25" fill="none" xmlns="http://www.w3.org/2000/svg">
<path d="M2.16426 22.1565V1.65527H1.37301C1.07676 1.65527 0.833008 1.89902 0.833008 2.19902V24.129C0.833008 24.429 1.07301 24.6728 1.37301 24.6728H19.328C19.628 24.6728 19.868 24.429 19.868 24.129V23.2253H3.23301C2.64426 23.2253 2.16426 22.7453 2.16426 22.1565Z" fill="white"/>
<path d="M20.7194 5.34535L16.0694 0.687852L16.0544 0.672852H3.23312C3.06062 0.672852 2.92188 0.815352 2.92188 0.987852V22.1566C2.92188 22.3329 3.06437 22.4716 3.23312 22.4716H20.4269C20.5994 22.4716 20.7381 22.3291 20.7381 22.1566V5.3641L20.7194 5.34535ZM18.9419 20.7129H4.71813C4.44813 20.7129 4.22688 20.4916 4.22688 20.2216C4.22688 19.9516 4.44813 19.7304 4.71813 19.7304H18.9419C19.2119 19.7304 19.4331 19.9516 19.4331 20.2216C19.4331 20.4916 19.2119 20.7129 18.9419 20.7129ZM18.9419 16.8841H4.71813C4.58734 16.8841 4.46191 16.8321 4.36943 16.7397C4.27695 16.6472 4.225 16.5218 4.225 16.391C4.225 16.2602 4.27695 16.1348 4.36943 16.0423C4.46191 15.9498 4.58734 15.8979 4.71813 15.8979H18.9419C19.0727 15.8979 19.1981 15.9498 19.2906 16.0423C19.383 16.1348 19.435 16.2602 19.435 16.391C19.435 16.5218 19.383 16.6472 19.2906 16.7397C19.1981 16.8321 19.0727 16.8841 18.9419 16.8841ZM18.9419 13.0479H4.71813C4.44813 13.0479 4.22688 12.8266 4.22688 12.5566C4.22688 12.2866 4.44813 12.0654 4.71813 12.0654H18.9419C19.2119 12.0654 19.4331 12.2866 19.4331 12.5566C19.4331 12.8266 19.2119 13.0479 18.9419 13.0479Z" fill="white"/>
</svg>
