<svg width="25" height="25" viewBox="0 0 25 25" fill="none" xmlns="http://www.w3.org/2000/svg">
<path d="M20.7297 21.6731H4.72969C4.51751 21.6731 4.31403 21.5888 4.164 21.4388C4.01397 21.2888 3.92969 21.0853 3.92969 20.8731V3.9611C3.92969 3.14211 4.25503 2.35666 4.83414 1.77755C5.41325 1.19844 6.1987 0.873097 7.01769 0.873097H18.4417C19.2607 0.873097 20.0461 1.19844 20.6252 1.77755C21.2043 2.35666 21.5297 3.14211 21.5297 3.9611V20.8731C21.5297 21.0853 21.4454 21.2888 21.2954 21.4388C21.1453 21.5888 20.9419 21.6731 20.7297 21.6731ZM12.7297 8.0731C11.7803 8.0731 10.8523 8.35461 10.063 8.88204C9.27359 9.40947 8.65837 10.1591 8.29507 11.0362C7.93177 11.9133 7.83671 12.8784 8.02192 13.8095C8.20713 14.7406 8.66428 15.5959 9.33558 16.2672C10.0069 16.9385 10.8621 17.3957 11.7933 17.5809C12.7244 17.7661 13.6895 17.671 14.5666 17.3077C15.4437 16.9444 16.1933 16.3292 16.7207 15.5398C17.2482 14.7505 17.5297 13.8224 17.5297 12.8731C17.5297 11.6001 17.024 10.3792 16.1238 9.47898C15.2236 8.57881 14.0027 8.0731 12.7297 8.0731Z" fill="white"/>
<path d="M22.3295 24.873H3.12949C2.49297 24.873 1.88252 24.6202 1.43244 24.1701C0.982349 23.72 0.729492 23.1096 0.729492 22.473V17.673C0.730884 17.1779 0.885395 16.6953 1.17184 16.2914C1.45829 15.8875 1.86265 15.5821 2.32949 15.417V20.873C2.32949 21.5096 2.58235 22.12 3.03244 22.5701C3.48252 23.0202 4.09297 23.273 4.72949 23.273H20.7295C21.366 23.273 21.9765 23.0202 22.4265 22.5701C22.8766 22.12 23.1295 21.5096 23.1295 20.873V15.417C23.5963 15.5821 24.0007 15.8875 24.2871 16.2914C24.5736 16.6953 24.7281 17.1779 24.7295 17.673V22.473C24.7295 23.1096 24.4766 23.72 24.0265 24.1701C23.5765 24.6202 22.966 24.873 22.3295 24.873Z" fill="white"/>
</svg>
