<svg width="25" height="25" viewBox="0 0 25 25" fill="none" xmlns="http://www.w3.org/2000/svg">
<path d="M20.2883 3.94531H4.28828C4.07611 3.94531 3.87263 4.0296 3.7226 4.17963C3.57257 4.32966 3.48828 4.53314 3.48828 4.74531V21.6573C3.48828 22.4763 3.81362 23.2617 4.39274 23.8409C4.97185 24.42 5.75729 24.7453 6.57628 24.7453H18.0003C18.8193 24.7453 19.6047 24.42 20.1838 23.8409C20.7629 23.2617 21.0883 22.4763 21.0883 21.6573V4.74531C21.0883 4.53314 21.004 4.32966 20.854 4.17963C20.7039 4.0296 20.5005 3.94531 20.2883 3.94531ZM12.2883 17.5453C11.3389 17.5453 10.4109 17.2638 9.62154 16.7364C8.83219 16.2089 8.21696 15.4593 7.85366 14.5822C7.49036 13.7051 7.3953 12.74 7.58051 11.8089C7.76572 10.8778 8.22288 10.0225 8.89417 9.3512C9.56546 8.67991 10.4207 8.22275 11.3518 8.03754C12.283 7.85233 13.2481 7.94739 14.1252 8.31069C15.0022 8.67399 15.7519 9.28922 16.2793 10.0786C16.8068 10.8679 17.0883 11.796 17.0883 12.7453C17.0883 14.0184 16.5826 15.2393 15.6824 16.1394C14.7822 17.0396 13.5613 17.5453 12.2883 17.5453Z" fill="#FFC700"/>
<path d="M21.8881 0.745117H2.68809C2.05157 0.745117 1.44112 0.997974 0.99103 1.44806C0.540942 1.89815 0.288086 2.5086 0.288086 3.14512V7.94512C0.289478 8.44027 0.443989 8.92288 0.730437 9.32677C1.01688 9.73066 1.42125 10.0361 1.88809 10.2011V4.74512C1.88809 4.1086 2.14094 3.49815 2.59103 3.04806C3.04112 2.59797 3.65157 2.34512 4.28809 2.34512H20.2881C20.9246 2.34512 21.5351 2.59797 21.9851 3.04806C22.4352 3.49815 22.6881 4.1086 22.6881 4.74512V10.2011C23.1549 10.0361 23.5593 9.73066 23.8457 9.32677C24.1322 8.92288 24.2867 8.44027 24.2881 7.94512V3.14512C24.2881 2.5086 24.0352 1.89815 23.5851 1.44806C23.1351 0.997974 22.5246 0.745117 21.8881 0.745117Z" fill="#FFC700"/>
</svg>
