<svg width="29" height="29" viewBox="0 0 29 29" fill="none" xmlns="http://www.w3.org/2000/svg">
<path d="M11.6881 22.1013V25.1451C11.6881 26.5811 12.8521 27.7451 14.2881 27.7451C15.724 27.7451 16.8881 26.5811 16.8881 25.1451V22.1013M14.2881 1.74512V3.04512M2.58809 14.7451H1.28809M5.83809 6.29512L5.05796 5.51499M22.7381 6.29512L23.5184 5.51499M27.2881 14.7451H25.9881M22.0881 14.7451C22.0881 19.0529 18.5959 22.5451 14.2881 22.5451C9.98026 22.5451 6.48809 19.0529 6.48809 14.7451C6.48809 10.4373 9.98026 6.94512 14.2881 6.94512C18.5959 6.94512 22.0881 10.4373 22.0881 14.7451Z" stroke="#F1416C" stroke-width="2" stroke-linecap="round" stroke-linejoin="round"/>
</svg>
