<svg width="22" height="28" viewBox="0 0 22 28" fill="none" xmlns="http://www.w3.org/2000/svg">
<path d="M5 17.7451V21.7451M17 15.7451V19.7451M16 10.7451C18.4487 10.7451 19.7731 11.1199 20.4321 11.4106C20.5199 11.4493 20.5638 11.4686 20.6904 11.5895C20.7663 11.6619 20.9049 11.8745 20.9405 11.9732C21 12.1379 21 12.2279 21 12.4079V23.1563C21 24.065 21 24.5194 20.8637 24.753C20.7251 24.9906 20.5914 25.101 20.3319 25.1923C20.0769 25.2821 19.562 25.1831 18.5322 24.9853C17.8114 24.8468 16.9565 24.7451 16 24.7451C13 24.7451 10 26.7451 6 26.7451C3.55129 26.7451 2.22687 26.3704 1.56788 26.0797C1.48012 26.041 1.43624 26.0216 1.3096 25.9007C1.23369 25.8283 1.09512 25.6157 1.05947 25.517C1 25.3524 1 25.2624 1 25.0824L1 14.334C1 13.4252 1 12.9708 1.13628 12.7373C1.2749 12.4997 1.40859 12.3892 1.66806 12.2979C1.92314 12.2082 2.43803 12.3071 3.46783 12.505C4.18862 12.6435 5.04348 12.7451 6 12.7451C9 12.7451 12 10.7451 16 10.7451ZM13.5 18.7451C13.5 20.1258 12.3807 21.2451 11 21.2451C9.61929 21.2451 8.5 20.1258 8.5 18.7451C8.5 17.3644 9.61929 16.2451 11 16.2451C12.3807 16.2451 13.5 17.3644 13.5 18.7451Z" stroke="#06BC56" stroke-width="2" stroke-linecap="round" stroke-linejoin="round"/>
<path d="M4.87842 9.58789V1.83105M4.87842 1.83105L1 5.70947M4.87842 1.83105L8.75684 5.70947" stroke="#06BC56" stroke-width="2" stroke-linecap="round" stroke-linejoin="round"/>
</svg>
