<svg width="17" height="25" viewBox="0 0 17 25" fill="none" xmlns="http://www.w3.org/2000/svg">
<path d="M14.816 0.745117H2.33602C1.8268 0.745117 1.33844 0.947402 0.978371 1.30747C0.618301 1.66754 0.416016 2.1559 0.416016 2.66512V22.8251C0.416016 23.3343 0.618301 23.8227 0.978371 24.1828C1.33844 24.5428 1.8268 24.7451 2.33602 24.7451H14.816C15.3252 24.7451 15.8136 24.5428 16.1737 24.1828C16.5337 23.8227 16.736 23.3343 16.736 22.8251V2.66512C16.736 2.1559 16.5337 1.66754 16.1737 1.30747C15.8136 0.947402 15.3252 0.745117 14.816 0.745117ZM3.77602 15.1451C3.96518 15.1452 4.15248 15.1825 4.32723 15.255C4.50197 15.3274 4.66073 15.4336 4.79445 15.5674C4.92817 15.7012 5.03422 15.86 5.10655 16.0348C5.17888 16.2096 5.21608 16.3969 5.21602 16.5861C5.21595 16.7752 5.17863 16.9625 5.10618 17.1373C5.03373 17.312 4.92758 17.4708 4.79377 17.6045C4.65996 17.7382 4.50113 17.8443 4.32634 17.9166C4.15155 17.9889 3.96422 18.0261 3.77506 18.0261C3.39302 18.0259 3.02668 17.8741 2.75662 17.6038C2.48657 17.3336 2.33493 16.9672 2.33506 16.5851C2.33518 16.2031 2.48707 15.8367 2.7573 15.5667C3.02753 15.2966 3.39398 15.145 3.77602 15.1451ZM2.33602 11.7851C2.33614 11.4031 2.48803 11.0367 2.75826 10.7667C3.02849 10.4966 3.39494 10.345 3.77698 10.3451C4.15902 10.3452 4.52536 10.4971 4.79541 10.7674C5.06546 11.0376 5.2171 11.404 5.21698 11.7861C5.21685 12.1681 5.06496 12.5345 4.79473 12.8045C4.5245 13.0746 4.15806 13.2262 3.77602 13.2261C3.39398 13.2259 3.02764 13.0741 2.75758 12.8038C2.48753 12.5336 2.33589 12.1672 2.33602 11.7851ZM8.57602 22.8251H3.77602C3.3941 22.8251 3.02783 22.6734 2.75778 22.4033C2.48773 22.1333 2.33602 21.767 2.33602 21.3851C2.33602 21.0032 2.48773 20.6369 2.75778 20.3669C3.02783 20.0968 3.3941 19.9451 3.77602 19.9451H8.57602C8.95793 19.9451 9.3242 20.0968 9.59425 20.3669C9.8643 20.6369 10.016 21.0032 10.016 21.3851C10.016 21.767 9.8643 22.1333 9.59425 22.4033C9.3242 22.6734 8.95793 22.8251 8.57602 22.8251ZM8.57602 18.0251C8.38685 18.0251 8.19955 17.9877 8.0248 17.9153C7.85006 17.8428 7.6913 17.7367 7.55758 17.6029C7.42387 17.4691 7.31781 17.3102 7.24548 17.1354C7.17315 16.9606 7.13595 16.7733 7.13602 16.5842C7.13608 16.395 7.1734 16.2077 7.24585 16.0329C7.3183 15.8582 7.42446 15.6994 7.55826 15.5657C7.69207 15.432 7.8509 15.326 8.02569 15.2536C8.20048 15.1813 8.38781 15.1441 8.57698 15.1442C8.95902 15.1443 9.32536 15.2962 9.59541 15.5664C9.86546 15.8366 10.0171 16.2031 10.017 16.5851C10.0168 16.9672 9.86496 17.3335 9.59473 17.6035C9.3245 17.8736 8.95806 18.0252 8.57602 18.0251ZM8.57602 13.2251C8.19398 13.225 7.82764 13.0731 7.55758 12.8029C7.28753 12.5326 7.13589 12.1662 7.13602 11.7842C7.13614 11.4021 7.28803 11.0358 7.55826 10.7657C7.82849 10.4957 8.19494 10.344 8.57698 10.3442C8.95902 10.3443 9.32536 10.4962 9.59541 10.7664C9.86546 11.0366 10.0171 11.4031 10.017 11.7851C10.0168 12.1672 9.86496 12.5335 9.59473 12.8035C9.3245 13.0736 8.95806 13.2252 8.57602 13.2251ZM13.376 22.8251C12.994 22.825 12.6276 22.6731 12.3576 22.4029C12.0875 22.1326 11.9359 21.7662 11.936 21.3842C11.9361 21.0021 12.088 20.6358 12.3583 20.3657C12.6285 20.0957 12.9949 19.944 13.377 19.9442C13.5661 19.9442 13.7534 19.9815 13.9282 20.054C14.1029 20.1264 14.2617 20.2326 14.3954 20.3664C14.5291 20.5002 14.6352 20.659 14.7075 20.8338C14.7798 21.0086 14.817 21.196 14.817 21.3851C14.8169 21.5743 14.7796 21.7616 14.7071 21.9363C14.6347 22.1111 14.5285 22.2698 14.3947 22.4035C14.2609 22.5373 14.1021 22.6433 13.9273 22.7157C13.7525 22.788 13.5652 22.8252 13.376 22.8251ZM13.376 18.0251C13.1869 18.0251 12.9995 17.9877 12.8248 17.9153C12.6501 17.8428 12.4913 17.7367 12.3576 17.6029C12.2239 17.4691 12.1178 17.3102 12.0455 17.1354C11.9732 16.9606 11.936 16.7733 11.936 16.5842C11.9361 16.395 11.9734 16.2077 12.0459 16.0329C12.1183 15.8582 12.2245 15.6994 12.3583 15.5657C12.4921 15.432 12.6509 15.326 12.8257 15.2536C13.0005 15.1813 13.1878 15.1441 13.377 15.1442C13.759 15.1443 14.1254 15.2962 14.3954 15.5664C14.6655 15.8366 14.8171 16.2031 14.817 16.5851C14.8168 16.9672 14.665 17.3335 14.3947 17.6035C14.1245 17.8736 13.7581 18.0252 13.376 18.0251ZM13.376 13.2251C12.994 13.225 12.6276 13.0731 12.3576 12.8029C12.0875 12.5326 11.9359 12.1662 11.936 11.7842C11.9361 11.4021 12.088 11.0358 12.3583 10.7657C12.6285 10.4957 12.9949 10.344 13.377 10.3442C13.759 10.3443 14.1254 10.4962 14.3954 10.7664C14.6655 11.0366 14.8171 11.4031 14.817 11.7851C14.8168 12.1672 14.665 12.5335 14.3947 12.8035C14.1245 13.0736 13.7581 13.2252 13.376 13.2251ZM14.816 6.50512C14.816 7.01433 14.6137 7.50269 14.2537 7.86276C13.8936 8.22283 13.4052 8.42512 12.896 8.42512H4.25602C3.7468 8.42512 3.25844 8.22283 2.89837 7.86276C2.5383 7.50269 2.33602 7.01433 2.33602 6.50512V4.58512C2.33602 4.0759 2.5383 3.58754 2.89837 3.22747C3.25844 2.8674 3.7468 2.66512 4.25602 2.66512H12.896C13.4052 2.66512 13.8936 2.8674 14.2537 3.22747C14.6137 3.58754 14.816 4.0759 14.816 4.58512V6.50512Z" fill="#0E19AA"/>
</svg>
