<svg width="25" height="26" viewBox="0 0 25 26" fill="none" xmlns="http://www.w3.org/2000/svg">
<path d="M11.2548 2.78906H1.44775V24.7451H16.5244V16.4017" stroke="#24A3FF" stroke-width="2" stroke-linejoin="round"/>
<rect x="6.0918" y="19.9229" width="5.58546" height="1.52314" fill="#24A3FF"/>
<path d="M13.1876 10.4487C13.0784 11.3709 13.8405 12.1624 14.7662 12.0881V12.0881C15.625 12.0191 16.2522 11.1997 15.7714 10.4846C15.6466 10.299 15.5036 10.121 15.3424 9.95357C15.1812 9.78617 15.0087 9.63649 14.8279 9.50473C14.1315 8.99735 13.2889 9.59312 13.1876 10.4487V10.4487Z" fill="#24A3FF"/>
<path d="M17.7057 7.67472C16.5858 6.51167 15.202 5.777 13.7729 5.48452L13.5731 7.17116C14.6409 7.38824 15.6807 7.93937 16.5228 8.81381C17.3648 9.68826 17.8762 10.7482 18.0528 11.8234L19.7458 11.6875C19.5075 10.2483 18.8256 8.83777 17.7057 7.67472Z" fill="#24A3FF"/>
<path d="M20.0725 5.39733C18.3926 3.65275 16.3129 2.5505 14.1732 2.11203L13.9735 3.79867C15.7518 4.16174 17.4876 5.08045 18.8895 6.53643C20.2915 7.9924 21.144 9.76163 21.4397 11.5524L23.1327 11.4165C22.7753 9.26175 21.7524 7.14191 20.0725 5.39733Z" fill="#24A3FF"/>
</svg>
