<svg width="25" height="25" viewBox="0 0 25 25" fill="none" xmlns="http://www.w3.org/2000/svg">
<path d="M5.72156 0.745117C4.34363 0.745117 3.09287 1.57064 2.55008 2.83715L0.656888 7.25182C0.598037 7.38617 0.588379 7.48999 0.588379 7.60272V8.78743C0.588379 9.99457 1.30133 11.0373 2.32116 11.5412V21.6204C2.32116 23.3118 3.70926 24.6999 5.40073 24.6999H15.1324C15.6049 24.6999 15.9879 24.3169 15.9879 23.8444C15.9879 23.3719 15.6049 22.9889 15.1324 22.9889H5.40073C4.62759 22.9889 4.03222 22.3935 4.03222 21.6204V11.8286C4.75747 11.7395 5.41007 11.4079 5.89199 10.9012C6.45478 11.4924 7.24405 11.867 8.11771 11.867C8.99132 11.867 9.7794 11.4924 10.3417 10.9012C10.9041 11.4924 11.6922 11.867 12.5658 11.867C13.4394 11.867 14.2275 11.4924 14.7898 10.9012C15.3522 11.4924 16.1403 11.867 17.0139 11.867C17.8875 11.867 18.6768 11.4924 19.2396 10.9012C19.8019 11.4924 20.59 11.867 21.4636 11.867C23.1549 11.867 24.5432 10.4787 24.5432 8.78743V7.77149C24.5814 7.59674 24.5639 7.41442 24.4931 7.25015L22.5848 2.83214C22.0386 1.56744 20.7876 0.745117 19.41 0.745117H5.72156ZM2.29944 8.44488H5.03646V8.78743C5.03646 9.56072 4.44125 10.1559 3.66795 10.1559C2.89466 10.1559 2.29944 9.56072 2.29944 8.78743V8.44488ZM6.74752 8.44488H9.48622V8.78743C9.48622 9.56072 8.891 10.1559 8.11771 10.1559C7.34441 10.1559 6.74752 9.55995 6.74752 8.78743V8.44488ZM11.1973 8.44488H13.9343V8.78743C13.9343 9.56072 13.3391 10.1559 12.5658 10.1559C11.7925 10.1559 11.1973 9.56072 11.1973 8.78743V8.44488ZM15.6454 8.44488H18.3841V8.78743C18.3841 9.55995 17.7872 10.1559 17.0139 10.1559C16.2406 10.1559 15.6454 9.56072 15.6454 8.78743V8.44488ZM20.0951 8.44488H22.8321V8.78743C22.8321 9.56072 22.2369 10.1559 21.4636 10.1559C20.6903 10.1559 20.0951 9.56072 20.0951 8.78743V8.44488Z" fill="#181C32"/>
<path d="M19.9315 13.1621C17.3843 13.1621 15.318 15.2835 15.318 17.8558C15.318 21.9305 19.4469 24.5948 19.4469 24.5948C19.5895 24.6928 19.7585 24.7452 19.9315 24.7452C20.1045 24.7452 20.2735 24.6928 20.4161 24.5948C20.4161 24.5948 24.5433 21.9305 24.5433 17.8558C24.5433 15.2835 22.4787 13.1621 19.9315 13.1621ZM19.8964 16.611C19.9081 16.6108 19.9198 16.6108 19.9315 16.611C20.0915 16.611 20.2499 16.6432 20.3977 16.7058C20.5455 16.7683 20.6798 16.86 20.7929 16.9756C20.906 17.0912 20.9958 17.2284 21.057 17.3795C21.1182 17.5305 21.1496 17.6924 21.1496 17.8558C21.1496 18.0193 21.1182 18.1811 21.057 18.3322C20.9958 18.4832 20.906 18.6204 20.7929 18.736C20.6798 18.8516 20.5455 18.9433 20.3977 19.0059C20.2499 19.0685 20.0915 19.1007 19.9315 19.1007C19.7715 19.1007 19.6131 19.0685 19.4653 19.0059C19.3175 18.9433 19.1832 18.8516 19.0701 18.736C18.9569 18.6204 18.8672 18.4832 18.806 18.3322C18.7448 18.1811 18.7133 18.0193 18.7134 17.8558C18.7132 17.5318 18.8367 17.2205 19.0576 16.9881C19.2785 16.7556 19.5794 16.6203 19.8964 16.611ZM6.57721 14.4337C6.35032 14.4337 6.13272 14.5239 5.97228 14.6843C5.81185 14.8447 5.7217 15.0623 5.72168 15.2892V19.5669C5.7217 19.7938 5.81185 20.0114 5.97228 20.1718C6.13272 20.3322 6.35032 20.4224 6.57721 20.4224H11.6669C11.8938 20.4224 12.1114 20.3322 12.2719 20.1718C12.4323 20.0114 12.5224 19.7938 12.5225 19.5669V15.2892C12.5224 15.0623 12.4323 14.8447 12.2719 14.6843C12.1114 14.5239 11.8938 14.4337 11.6669 14.4337H6.57721Z" fill="#181C32"/>
</svg>
